<svg width="87" height="87" viewBox="0 0 87 87" fill="none" xmlns="http://www.w3.org/2000/svg">
<path d="M53.082 43.5002L85.6101 10.9707C86.5049 10.0752 86.9986 8.88059 87 7.60671C87 6.33212 86.5063 5.13605 85.6101 4.242L82.7596 1.39222C81.8634 0.494637 80.6688 0.00305176 79.3935 0.00305176C78.1203 0.00305176 76.9257 0.494637 76.0295 1.39222L43.5014 33.9196L10.9719 1.39222C10.0771 0.494637 8.88178 0.00305176 7.60719 0.00305176C6.33402 0.00305176 5.13866 0.494637 4.2439 1.39222L1.392 4.242C-0.464 6.098 -0.464 9.11683 1.392 10.9707L33.9208 43.5002L1.392 76.0283C0.496537 76.9252 0.00353658 78.1199 0.00353658 79.3937C0.00353658 80.6676 0.496537 81.8623 1.392 82.7584L4.24319 85.6082C5.13795 86.5051 6.33402 86.9974 7.60649 86.9974C8.88107 86.9974 10.0764 86.5051 10.9712 85.6082L43.5007 53.0801L76.0288 85.6082C76.925 86.5051 78.1196 86.9974 79.3928 86.9974H79.3942C80.6681 86.9974 81.8627 86.5051 82.7589 85.6082L85.6094 82.7584C86.5042 81.863 86.9979 80.6676 86.9979 79.3937C86.9979 78.1199 86.5042 76.9252 85.6094 76.029L53.082 43.5002Z" fill="white"/>
</svg>
